<?xml version="1.0" standalone="no"?>
<!DOCTYPE svg PUBLIC "-//W3C//DTD SVG 20010904//EN"
 "http://www.w3.org/TR/2001/REC-SVG-20010904/DTD/svg10.dtd">
<svg version="1.0" xmlns="http://www.w3.org/2000/svg"
 width="1476.000000pt" height="1414.000000pt" viewBox="0 0 1476.000000 1414.000000"
 preserveAspectRatio="xMidYMid meet">

<g transform="translate(0.000000,1414.000000) scale(0.100000,-0.100000)"
fill="#000000" stroke="none">
<path d="M2860 7045 l0 -6285 605 0 605 0 0 5605 0 5605 1153 0 c1105 0 1157
-1 1275 -20 239 -39 475 -105 707 -197 840 -333 1324 -919 1406 -1702 15 -143
6 -461 -16 -591 -71 -416 -239 -741 -530 -1018 -341 -326 -861 -561 -1434
-647 -84 -12 -239 -15 -911 -15 l-810 0 0 -645 0 -645 2623 0 c2530 0 2625 -1
2707 -19 222 -49 428 -147 604 -286 397 -312 589 -830 547 -1472 -7 -95 -14
-179 -17 -187 -7 -19 183 -26 722 -26 l452 0 11 52 c45 209 65 457 58 703 -17
532 -156 964 -448 1395 -114 168 -197 269 -344 416 -207 209 -398 350 -638
474 -166 85 -279 130 -441 175 -248 67 -282 70 -948 70 -396 0 -594 3 -588 10
306 392 508 798 620 1245 168 676 123 1287 -147 1970 -482 1219 -1488 2046
-2749 2259 -333 57 -227 54 -2226 58 l-1848 4 0 -6286z"/>
<path d="M4900 9880 l0 -1230 570 0 570 0 0 1230 0 1230 -570 0 -570 0 0
-1230z"/>
<path d="M4910 3190 l0 -2431 1868 4 1867 3 140 22 c1240 200 2267 851 2942
1862 148 223 334 570 435 813 l36 87 -542 -1 -541 0 -77 -102 c-290 -386 -723
-748 -1173 -983 -365 -191 -739 -305 -1160 -354 -107 -13 -2436 -16 -2588 -4
l-79 7 7 1753 8 1754 -572 0 -571 0 0 -2430z"/>
</g>
</svg>
